<?xml version="1.0" standalone="no"?>
<!DOCTYPE svg PUBLIC "-//W3C//DTD SVG 20010904//EN"
 "http://www.w3.org/TR/2001/REC-SVG-20010904/DTD/svg10.dtd">
<svg version="1.0" xmlns="http://www.w3.org/2000/svg"
 width="180.000000pt" height="180.000000pt" viewBox="0 0 180.000000 180.000000"
 preserveAspectRatio="xMidYMid meet">

<g transform="translate(0.000000,180.000000) scale(0.100000,-0.100000)"
fill="#000000" stroke="none">
<path d="M0 900 l0 -900 900 0 900 0 0 900 0 900 -900 0 -900 0 0 -900z m1067
570 c-3 -11 -4 -20 -4 -20 1 0 20 7 42 15 126 45 243 -23 253 -148 3 -45 -20
-170 -54 -294 -6 -22 -12 -23 -96 -23 -80 0 -89 2 -84 18 3 9 19 73 36 141 27
112 29 127 15 147 -8 12 -24 26 -36 29 -27 9 -84 -2 -98 -19 -6 -7 -26 -68
-45 -134 -48 -173 -70 -202 -153 -202 -36 0 -112 18 -126 30 -4 4 -3 30 4 58
9 43 14 52 32 52 47 0 56 19 97 181 17 68 36 139 41 157 l11 32 85 0 c80 0 85
-1 80 -20z m-297 -2 c1 -7 -32 -142 -71 -299 l-72 -285 -61 0 c-34 0 -73 -3
-88 -7 -20 -5 -28 -4 -28 5 0 7 32 145 71 306 l71 292 89 0 c64 0 89 -3 89
-12z m-88 -663 c88 -45 122 -102 122 -205 -2 -164 -106 -274 -271 -288 -90 -7
-147 12 -204 67 -56 54 -74 109 -65 189 15 130 99 229 215 253 54 12 165 3
203 -16z m761 1 c86 -37 107 -117 63 -245 -27 -78 -25 -90 17 -91 21 0 21 0 1
-72 l-17 -58 -234 0 -235 0 7 33 c18 89 22 94 78 101 29 3 82 6 118 6 74 0 74
0 99 98 21 84 -6 104 -135 101 -63 -1 -79 1 -76 12 2 8 8 32 14 54 5 22 13 44
17 49 24 26 229 35 283 12z m-381 -136 l-35 -140 -95 0 c-85 0 -94 2 -90 18 3
9 20 72 38 140 l33 122 92 0 93 0 -36 -140z"/>
<path d="M478 660 c-33 -26 -61 -95 -53 -131 13 -56 80 -85 137 -58 61 28 88
131 48 182 -17 22 -29 27 -64 27 -28 0 -52 -7 -68 -20z"/>
</g>
</svg>
