<?xml version="1.0" standalone="no"?>
<!DOCTYPE svg PUBLIC "-//W3C//DTD SVG 20010904//EN"
 "http://www.w3.org/TR/2001/REC-SVG-20010904/DTD/svg10.dtd">
<svg version="1.0" xmlns="http://www.w3.org/2000/svg"
 width="288.000000pt" height="288.000000pt" viewBox="0 0 288.000000 288.000000"
 preserveAspectRatio="xMidYMid meet">
<metadata>
Created by potrace 1.15, written by Peter Selinger 2001-2017
</metadata>
<g transform="translate(0.000000,288.000000) scale(0.100000,-0.100000)"
fill="#000000" stroke="none">
<path d="M0 1440 l0 -1440 1440 0 1440 0 0 1440 0 1440 -1440 0 -1440 0 0
-1440z m1635 669 l-7 -31 33 18 c18 9 60 19 94 21 82 6 159 -32 193 -95 40
-72 39 -135 -3 -309 l-37 -153 -104 0 c-57 0 -104 2 -104 4 0 3 16 69 35 147
43 174 44 203 10 225 -30 20 -119 15 -140 -7 -7 -8 -30 -75 -50 -149 -21 -74
-46 -152 -57 -173 -23 -45 -71 -77 -117 -77 -35 0 -151 27 -163 38 -4 4 0 35
9 70 15 61 16 62 49 62 44 0 53 19 99 197 20 76 43 162 51 191 l15 52 100 0
101 0 -7 -31z m-345 -1 c0 -6 -38 -162 -85 -345 -47 -183 -85 -335 -85 -337 0
-2 -42 -6 -92 -8 -51 -3 -102 -9 -112 -13 -15 -6 -18 -5 -14 6 3 8 43 170 89
361 l84 348 108 0 c76 0 107 -3 107 -12z m-122 -774 c138 -57 192 -192 143
-354 -19 -61 -31 -81 -79 -130 -73 -73 -139 -100 -251 -100 -101 0 -163 22
-216 75 -60 59 -79 116 -73 212 11 165 101 273 258 310 64 15 167 9 218 -13z
m918 -7 c101 -52 118 -148 55 -310 l-29 -77 39 0 c23 0 39 -5 39 -12 0 -21
-33 -133 -43 -146 -14 -18 -547 -17 -547 1 0 7 9 44 18 82 l18 70 142 3 141 3
21 65 c46 151 23 179 -142 172 -84 -3 -97 -2 -94 12 3 8 12 41 21 72 17 61 20
63 115 82 54 10 215 -1 246 -17z m-416 7 c0 -4 -19 -80 -42 -170 l-42 -164
-108 0 c-73 0 -108 4 -108 11 0 6 19 83 42 170 l42 159 108 0 c59 0 108 -3
108 -6z"/>
<path d="M942 1155 c-83 -70 -81 -197 3 -225 88 -29 175 41 175 140 0 46 -21
94 -45 104 -40 15 -104 6 -133 -19z"/>
</g>
</svg>
